<mxfile host="app.diagrams.net" modified="2023-09-01T22:07:30.127Z" agent="Mozilla/5.0 (Macintosh; Intel Mac OS X 10_15_7) AppleWebKit/537.36 (KHTML, like Gecko) Chrome/116.0.0.0 Safari/537.36" etag="FRbt03H8xZArfP4SBMWm" version="21.7.2" type="github">
  <diagram name="Page-1" id="AxYYVU5SWEbJM4rRlG5D">
    <mxGraphModel dx="2506" dy="1562" grid="1" gridSize="10" guides="1" tooltips="1" connect="1" arrows="1" fold="1" page="1" pageScale="1" pageWidth="425" pageHeight="300" math="0" shadow="0">
      <root>
        <mxCell id="0" />
        <mxCell id="1" parent="0" />
        <mxCell id="Fl4C2TGSHlUgDAXC81Mp-15" value="" style="edgeStyle=orthogonalEdgeStyle;rounded=0;orthogonalLoop=1;jettySize=auto;html=1;strokeWidth=2;" edge="1" parent="1" source="Fl4C2TGSHlUgDAXC81Mp-1" target="Fl4C2TGSHlUgDAXC81Mp-3">
          <mxGeometry relative="1" as="geometry" />
        </mxCell>
        <mxCell id="Fl4C2TGSHlUgDAXC81Mp-16" style="edgeStyle=orthogonalEdgeStyle;rounded=0;orthogonalLoop=1;jettySize=auto;html=1;entryX=0.5;entryY=0;entryDx=0;entryDy=0;strokeWidth=2;" edge="1" parent="1" source="Fl4C2TGSHlUgDAXC81Mp-1" target="Fl4C2TGSHlUgDAXC81Mp-2">
          <mxGeometry relative="1" as="geometry" />
        </mxCell>
        <mxCell id="Fl4C2TGSHlUgDAXC81Mp-51" style="edgeStyle=orthogonalEdgeStyle;rounded=0;orthogonalLoop=1;jettySize=auto;html=1;exitX=0.25;exitY=0;exitDx=0;exitDy=0;entryX=0.25;entryY=0;entryDx=0;entryDy=0;startArrow=classic;startFill=1;strokeWidth=2;" edge="1" parent="1" source="Fl4C2TGSHlUgDAXC81Mp-11" target="Fl4C2TGSHlUgDAXC81Mp-10">
          <mxGeometry relative="1" as="geometry" />
        </mxCell>
        <mxCell id="Fl4C2TGSHlUgDAXC81Mp-52" style="edgeStyle=orthogonalEdgeStyle;rounded=0;orthogonalLoop=1;jettySize=auto;html=1;exitX=0.75;exitY=0;exitDx=0;exitDy=0;entryX=0.25;entryY=0;entryDx=0;entryDy=0;startArrow=classic;startFill=1;strokeWidth=2;" edge="1" parent="1" source="Fl4C2TGSHlUgDAXC81Mp-1" target="Fl4C2TGSHlUgDAXC81Mp-10">
          <mxGeometry relative="1" as="geometry" />
        </mxCell>
        <mxCell id="Fl4C2TGSHlUgDAXC81Mp-1" value="Contentstack" style="rounded=0;whiteSpace=wrap;html=1;fillColor=#ffe6cc;strokeColor=#d79b00;fontSize=20;" vertex="1" parent="1">
          <mxGeometry x="301" y="150" width="145" height="60" as="geometry" />
        </mxCell>
        <mxCell id="Fl4C2TGSHlUgDAXC81Mp-17" style="edgeStyle=orthogonalEdgeStyle;rounded=0;orthogonalLoop=1;jettySize=auto;html=1;entryX=0.5;entryY=0;entryDx=0;entryDy=0;strokeWidth=2;" edge="1" parent="1" source="Fl4C2TGSHlUgDAXC81Mp-2" target="Fl4C2TGSHlUgDAXC81Mp-4">
          <mxGeometry relative="1" as="geometry" />
        </mxCell>
        <mxCell id="Fl4C2TGSHlUgDAXC81Mp-18" style="edgeStyle=orthogonalEdgeStyle;rounded=0;orthogonalLoop=1;jettySize=auto;html=1;entryX=0.5;entryY=0;entryDx=0;entryDy=0;strokeWidth=2;" edge="1" parent="1" source="Fl4C2TGSHlUgDAXC81Mp-2" target="Fl4C2TGSHlUgDAXC81Mp-5">
          <mxGeometry relative="1" as="geometry" />
        </mxCell>
        <mxCell id="Fl4C2TGSHlUgDAXC81Mp-19" style="edgeStyle=orthogonalEdgeStyle;rounded=0;orthogonalLoop=1;jettySize=auto;html=1;strokeWidth=2;" edge="1" parent="1" source="Fl4C2TGSHlUgDAXC81Mp-2" target="Fl4C2TGSHlUgDAXC81Mp-6">
          <mxGeometry relative="1" as="geometry">
            <Array as="points">
              <mxPoint x="301" y="350" />
              <mxPoint x="518" y="350" />
            </Array>
          </mxGeometry>
        </mxCell>
        <mxCell id="Fl4C2TGSHlUgDAXC81Mp-2" value="Main" style="rounded=0;whiteSpace=wrap;html=1;fillColor=#f8cecc;strokeColor=#b85450;fontSize=16;" vertex="1" parent="1">
          <mxGeometry x="241" y="260" width="120" height="60" as="geometry" />
        </mxCell>
        <mxCell id="Fl4C2TGSHlUgDAXC81Mp-34" style="edgeStyle=orthogonalEdgeStyle;rounded=0;orthogonalLoop=1;jettySize=auto;html=1;entryX=0.75;entryY=0;entryDx=0;entryDy=0;" edge="1" parent="1" source="Fl4C2TGSHlUgDAXC81Mp-3" target="Fl4C2TGSHlUgDAXC81Mp-4">
          <mxGeometry relative="1" as="geometry">
            <Array as="points">
              <mxPoint x="446" y="340" />
              <mxPoint x="258" y="340" />
            </Array>
          </mxGeometry>
        </mxCell>
        <mxCell id="Fl4C2TGSHlUgDAXC81Mp-36" style="edgeStyle=orthogonalEdgeStyle;rounded=0;orthogonalLoop=1;jettySize=auto;html=1;entryX=0.75;entryY=0;entryDx=0;entryDy=0;" edge="1" parent="1" source="Fl4C2TGSHlUgDAXC81Mp-3" target="Fl4C2TGSHlUgDAXC81Mp-6">
          <mxGeometry relative="1" as="geometry">
            <Array as="points">
              <mxPoint x="446" y="340" />
              <mxPoint x="548" y="340" />
            </Array>
          </mxGeometry>
        </mxCell>
        <mxCell id="Fl4C2TGSHlUgDAXC81Mp-37" style="edgeStyle=orthogonalEdgeStyle;rounded=0;orthogonalLoop=1;jettySize=auto;html=1;entryX=0.75;entryY=0;entryDx=0;entryDy=0;" edge="1" parent="1" source="Fl4C2TGSHlUgDAXC81Mp-3" target="Fl4C2TGSHlUgDAXC81Mp-5">
          <mxGeometry relative="1" as="geometry">
            <Array as="points">
              <mxPoint x="446" y="340" />
              <mxPoint x="403" y="340" />
            </Array>
          </mxGeometry>
        </mxCell>
        <mxCell id="Fl4C2TGSHlUgDAXC81Mp-3" value="UAT" style="rounded=0;whiteSpace=wrap;html=1;fillColor=#f8cecc;strokeColor=#b85450;fontSize=16;" vertex="1" parent="1">
          <mxGeometry x="386" y="260" width="120" height="60" as="geometry" />
        </mxCell>
        <mxCell id="Fl4C2TGSHlUgDAXC81Mp-20" style="edgeStyle=orthogonalEdgeStyle;rounded=0;orthogonalLoop=1;jettySize=auto;html=1;entryX=0.5;entryY=0;entryDx=0;entryDy=0;strokeWidth=2;" edge="1" parent="1" source="Fl4C2TGSHlUgDAXC81Mp-4" target="Fl4C2TGSHlUgDAXC81Mp-7">
          <mxGeometry relative="1" as="geometry">
            <Array as="points">
              <mxPoint x="228" y="480" />
              <mxPoint x="188" y="480" />
            </Array>
          </mxGeometry>
        </mxCell>
        <mxCell id="Fl4C2TGSHlUgDAXC81Mp-21" style="edgeStyle=orthogonalEdgeStyle;rounded=0;orthogonalLoop=1;jettySize=auto;html=1;strokeWidth=2;" edge="1" parent="1" source="Fl4C2TGSHlUgDAXC81Mp-4" target="Fl4C2TGSHlUgDAXC81Mp-8">
          <mxGeometry relative="1" as="geometry">
            <Array as="points">
              <mxPoint x="228" y="480" />
              <mxPoint x="373" y="480" />
            </Array>
          </mxGeometry>
        </mxCell>
        <mxCell id="Fl4C2TGSHlUgDAXC81Mp-25" style="edgeStyle=orthogonalEdgeStyle;rounded=0;orthogonalLoop=1;jettySize=auto;html=1;entryX=0.5;entryY=0;entryDx=0;entryDy=0;strokeWidth=2;" edge="1" parent="1" source="Fl4C2TGSHlUgDAXC81Mp-4" target="Fl4C2TGSHlUgDAXC81Mp-9">
          <mxGeometry relative="1" as="geometry">
            <Array as="points">
              <mxPoint x="228" y="480" />
              <mxPoint x="558" y="480" />
            </Array>
          </mxGeometry>
        </mxCell>
        <mxCell id="Fl4C2TGSHlUgDAXC81Mp-4" value="Prod" style="rounded=0;whiteSpace=wrap;html=1;fillColor=#dae8fc;strokeColor=#6c8ebf;fontSize=16;" vertex="1" parent="1">
          <mxGeometry x="168" y="380" width="120" height="60" as="geometry" />
        </mxCell>
        <mxCell id="Fl4C2TGSHlUgDAXC81Mp-26" style="edgeStyle=orthogonalEdgeStyle;rounded=0;orthogonalLoop=1;jettySize=auto;html=1;entryX=0.75;entryY=0;entryDx=0;entryDy=0;dashed=1;" edge="1" parent="1" source="Fl4C2TGSHlUgDAXC81Mp-5" target="Fl4C2TGSHlUgDAXC81Mp-7">
          <mxGeometry relative="1" as="geometry">
            <Array as="points">
              <mxPoint x="373" y="470" />
              <mxPoint x="218" y="470" />
            </Array>
          </mxGeometry>
        </mxCell>
        <mxCell id="Fl4C2TGSHlUgDAXC81Mp-28" style="edgeStyle=orthogonalEdgeStyle;rounded=0;orthogonalLoop=1;jettySize=auto;html=1;entryX=0.75;entryY=0;entryDx=0;entryDy=0;dashed=1;" edge="1" parent="1" source="Fl4C2TGSHlUgDAXC81Mp-5" target="Fl4C2TGSHlUgDAXC81Mp-8">
          <mxGeometry relative="1" as="geometry" />
        </mxCell>
        <mxCell id="Fl4C2TGSHlUgDAXC81Mp-29" style="edgeStyle=orthogonalEdgeStyle;rounded=0;orthogonalLoop=1;jettySize=auto;html=1;entryX=0.75;entryY=0;entryDx=0;entryDy=0;dashed=1;" edge="1" parent="1" source="Fl4C2TGSHlUgDAXC81Mp-5" target="Fl4C2TGSHlUgDAXC81Mp-9">
          <mxGeometry relative="1" as="geometry">
            <Array as="points">
              <mxPoint x="373" y="470" />
              <mxPoint x="588" y="470" />
            </Array>
          </mxGeometry>
        </mxCell>
        <mxCell id="Fl4C2TGSHlUgDAXC81Mp-5" value="QA" style="rounded=0;whiteSpace=wrap;html=1;fillColor=#dae8fc;strokeColor=#6c8ebf;fontSize=16;" vertex="1" parent="1">
          <mxGeometry x="313" y="380" width="120" height="60" as="geometry" />
        </mxCell>
        <mxCell id="Fl4C2TGSHlUgDAXC81Mp-31" style="edgeStyle=orthogonalEdgeStyle;rounded=0;orthogonalLoop=1;jettySize=auto;html=1;entryX=1;entryY=0;entryDx=0;entryDy=0;dashed=1;dashPattern=1 4;" edge="1" parent="1" source="Fl4C2TGSHlUgDAXC81Mp-6" target="Fl4C2TGSHlUgDAXC81Mp-7">
          <mxGeometry relative="1" as="geometry">
            <Array as="points">
              <mxPoint x="518" y="460" />
              <mxPoint x="248" y="460" />
            </Array>
          </mxGeometry>
        </mxCell>
        <mxCell id="Fl4C2TGSHlUgDAXC81Mp-32" style="edgeStyle=orthogonalEdgeStyle;rounded=0;orthogonalLoop=1;jettySize=auto;html=1;entryX=1;entryY=0;entryDx=0;entryDy=0;dashed=1;dashPattern=1 4;" edge="1" parent="1" source="Fl4C2TGSHlUgDAXC81Mp-6" target="Fl4C2TGSHlUgDAXC81Mp-8">
          <mxGeometry relative="1" as="geometry">
            <Array as="points">
              <mxPoint x="518" y="460" />
              <mxPoint x="433" y="460" />
            </Array>
          </mxGeometry>
        </mxCell>
        <mxCell id="Fl4C2TGSHlUgDAXC81Mp-33" style="edgeStyle=orthogonalEdgeStyle;rounded=0;orthogonalLoop=1;jettySize=auto;html=1;entryX=1;entryY=0;entryDx=0;entryDy=0;dashed=1;dashPattern=1 4;" edge="1" parent="1" source="Fl4C2TGSHlUgDAXC81Mp-6" target="Fl4C2TGSHlUgDAXC81Mp-9">
          <mxGeometry relative="1" as="geometry">
            <Array as="points">
              <mxPoint x="518" y="460" />
              <mxPoint x="618" y="460" />
            </Array>
          </mxGeometry>
        </mxCell>
        <mxCell id="Fl4C2TGSHlUgDAXC81Mp-6" value="UAT" style="rounded=0;whiteSpace=wrap;html=1;fillColor=#dae8fc;strokeColor=#6c8ebf;fontSize=16;" vertex="1" parent="1">
          <mxGeometry x="458" y="380" width="120" height="60" as="geometry" />
        </mxCell>
        <mxCell id="Fl4C2TGSHlUgDAXC81Mp-7" value="GMAP" style="rounded=0;whiteSpace=wrap;html=1;fillColor=#d5e8d4;strokeColor=#82b366;fontSize=20;" vertex="1" parent="1">
          <mxGeometry x="128" y="500" width="120" height="60" as="geometry" />
        </mxCell>
        <mxCell id="Fl4C2TGSHlUgDAXC81Mp-8" value="Lift Screen" style="rounded=0;whiteSpace=wrap;html=1;fillColor=#d5e8d4;strokeColor=#82b366;fontSize=20;" vertex="1" parent="1">
          <mxGeometry x="313" y="500" width="120" height="60" as="geometry" />
        </mxCell>
        <mxCell id="Fl4C2TGSHlUgDAXC81Mp-9" value="Menu Board" style="rounded=0;whiteSpace=wrap;html=1;fillColor=#d5e8d4;strokeColor=#82b366;fontSize=20;" vertex="1" parent="1">
          <mxGeometry x="498" y="500" width="120" height="60" as="geometry" />
        </mxCell>
        <mxCell id="Fl4C2TGSHlUgDAXC81Mp-39" style="edgeStyle=orthogonalEdgeStyle;rounded=0;orthogonalLoop=1;jettySize=auto;html=1;entryX=1;entryY=0.5;entryDx=0;entryDy=0;strokeWidth=2;" edge="1" parent="1" source="Fl4C2TGSHlUgDAXC81Mp-10" target="Fl4C2TGSHlUgDAXC81Mp-9">
          <mxGeometry relative="1" as="geometry">
            <Array as="points">
              <mxPoint x="658" y="180" />
              <mxPoint x="658" y="530" />
            </Array>
          </mxGeometry>
        </mxCell>
        <mxCell id="Fl4C2TGSHlUgDAXC81Mp-10" value="Aprimo" style="rounded=0;whiteSpace=wrap;html=1;fillColor=#e1d5e7;strokeColor=#9673a6;" vertex="1" parent="1">
          <mxGeometry x="523" y="150" width="120" height="60" as="geometry" />
        </mxCell>
        <mxCell id="Fl4C2TGSHlUgDAXC81Mp-38" style="edgeStyle=orthogonalEdgeStyle;rounded=0;orthogonalLoop=1;jettySize=auto;html=1;entryX=1;entryY=0.5;entryDx=0;entryDy=0;strokeWidth=2;" edge="1" parent="1" source="Fl4C2TGSHlUgDAXC81Mp-11" target="Fl4C2TGSHlUgDAXC81Mp-9">
          <mxGeometry relative="1" as="geometry">
            <Array as="points">
              <mxPoint x="658" y="180" />
              <mxPoint x="658" y="530" />
            </Array>
          </mxGeometry>
        </mxCell>
        <mxCell id="Fl4C2TGSHlUgDAXC81Mp-11" value="Samsung/MagicINFO" style="rounded=0;whiteSpace=wrap;html=1;fillColor=#e1d5e7;strokeColor=#9673a6;" vertex="1" parent="1">
          <mxGeometry x="673" y="150" width="120" height="60" as="geometry" />
        </mxCell>
        <mxCell id="Fl4C2TGSHlUgDAXC81Mp-41" style="edgeStyle=orthogonalEdgeStyle;rounded=0;orthogonalLoop=1;jettySize=auto;html=1;entryX=0.5;entryY=0;entryDx=0;entryDy=0;" edge="1" parent="1" source="Fl4C2TGSHlUgDAXC81Mp-40" target="Fl4C2TGSHlUgDAXC81Mp-1">
          <mxGeometry relative="1" as="geometry" />
        </mxCell>
        <mxCell id="Fl4C2TGSHlUgDAXC81Mp-42" style="edgeStyle=orthogonalEdgeStyle;rounded=0;orthogonalLoop=1;jettySize=auto;html=1;exitX=0.5;exitY=1;exitDx=0;exitDy=0;entryX=0.5;entryY=0;entryDx=0;entryDy=0;" edge="1" parent="1" source="Fl4C2TGSHlUgDAXC81Mp-40" target="Fl4C2TGSHlUgDAXC81Mp-10">
          <mxGeometry relative="1" as="geometry">
            <Array as="points">
              <mxPoint x="373" y="110" />
              <mxPoint x="583" y="110" />
            </Array>
          </mxGeometry>
        </mxCell>
        <mxCell id="Fl4C2TGSHlUgDAXC81Mp-43" style="edgeStyle=orthogonalEdgeStyle;rounded=0;orthogonalLoop=1;jettySize=auto;html=1;entryX=0.5;entryY=0;entryDx=0;entryDy=0;" edge="1" parent="1" source="Fl4C2TGSHlUgDAXC81Mp-40" target="Fl4C2TGSHlUgDAXC81Mp-11">
          <mxGeometry relative="1" as="geometry">
            <Array as="points">
              <mxPoint x="373" y="110" />
              <mxPoint x="733" y="110" />
            </Array>
          </mxGeometry>
        </mxCell>
        <mxCell id="Fl4C2TGSHlUgDAXC81Mp-40" value="&lt;br&gt;&lt;br&gt;Teams?" style="shape=actor;whiteSpace=wrap;html=1;" vertex="1" parent="1">
          <mxGeometry x="341" y="40" width="64" height="60" as="geometry" />
        </mxCell>
        <mxCell id="Fl4C2TGSHlUgDAXC81Mp-54" value="Branches" style="rounded=0;whiteSpace=wrap;html=1;fillColor=none;strokeColor=none;align=left;" vertex="1" parent="1">
          <mxGeometry x="40" y="260" width="122" height="60" as="geometry" />
        </mxCell>
        <mxCell id="Fl4C2TGSHlUgDAXC81Mp-55" value="Environments" style="rounded=0;whiteSpace=wrap;html=1;fillColor=none;strokeColor=none;align=left;" vertex="1" parent="1">
          <mxGeometry x="40" y="380" width="120" height="60" as="geometry" />
        </mxCell>
        <mxCell id="Fl4C2TGSHlUgDAXC81Mp-56" value="Properties" style="rounded=0;whiteSpace=wrap;html=1;fillColor=none;strokeColor=none;align=left;" vertex="1" parent="1">
          <mxGeometry x="40" y="500" width="120" height="60" as="geometry" />
        </mxCell>
      </root>
    </mxGraphModel>
  </diagram>
</mxfile>
